<?xml version="1.0" standalone="no"?>
<!DOCTYPE svg PUBLIC "-//W3C//DTD SVG 20010904//EN"
 "http://www.w3.org/TR/2001/REC-SVG-20010904/DTD/svg10.dtd">
<svg version="1.0" xmlns="http://www.w3.org/2000/svg"
 width="1248.000000pt" height="297.000000pt" viewBox="0 0 1248.000000 297.000000"
 preserveAspectRatio="xMidYMid meet">

<g transform="translate(0.000000,297.000000) scale(0.100000,-0.100000)"
fill="#000000" stroke="none">
<path d="M1093 2515 c-76 -21 -129 -51 -184 -102 -97 -90 -124 -167 -138 -390
l-10 -152 -98 -98 c-142 -142 -223 -296 -253 -486 -17 -104 -8 -280 20 -376
59 -207 209 -404 388 -510 l68 -41 395 0 394 0 80 51 c45 29 116 88 161 135
l82 84 4 -98 c4 -104 14 -129 59 -156 78 -46 179 12 179 102 0 27 4 30 40 36
42 7 120 66 120 92 0 10 15 14 55 14 30 0 65 5 79 11 28 13 56 64 56 103 0 19
7 29 24 36 34 13 66 58 66 94 0 41 -33 94 -65 102 -18 4 -25 13 -25 30 0 42
-27 92 -59 108 -16 9 -52 16 -80 16 -40 0 -51 4 -56 20 -10 30 -62 69 -111 81
-41 11 -44 14 -44 44 0 40 -38 90 -84 109 -25 10 -35 23 -45 57 -39 128 -161
309 -264 389 l-54 42 -10 172 c-9 134 -16 183 -33 226 -43 110 -132 197 -250
245 -62 25 -330 32 -407 10z m407 -84 c74 -38 110 -70 151 -133 44 -68 55
-117 64 -275 l7 -112 -82 35 c-89 37 -112 41 -129 20 -21 -25 -1 -44 79 -76
134 -54 235 -129 321 -236 52 -65 119 -185 139 -247 11 -35 10 -41 -8 -60 -35
-38 -42 -74 -42 -223 l0 -144 -290 0 -290 0 0 163 c0 178 -4 193 -60 222 -35
18 -77 19 -110 2 -33 -17 -70 -74 -70 -108 0 -21 -5 -29 -17 -29 -39 -1 -104
-40 -124 -75 -19 -32 -25 -35 -66 -35 -87 0 -133 -40 -133 -115 0 -24 -5 -35
-15 -35 -8 0 -29 -13 -46 -28 -26 -23 -32 -36 -32 -68 0 -49 25 -89 62 -102
24 -9 29 -17 33 -57 8 -68 32 -88 113 -93 60 -4 67 -7 80 -32 19 -37 62 -67
108 -75 20 -4 37 -13 37 -20 0 -7 3 -26 6 -43 l6 -31 -144 2 -145 2 -59 39
c-185 123 -303 287 -355 495 -18 71 -21 105 -17 220 4 115 9 148 32 216 81
237 273 435 489 504 46 15 64 43 41 65 -21 21 -20 21 -115 -19 l-82 -34 7 130
c10 191 51 283 160 357 80 53 122 62 296 59 141 -2 159 -4 200 -26z m479
-1693 c-49 -92 -175 -219 -280 -281 l-64 -38 -110 3 c-60 2 -109 6 -107 11 1
4 2 79 2 167 l0 160 285 0 286 0 -12 -22z"/>
<path d="M1123 2352 c-28 -10 -66 -30 -85 -44 -44 -34 -85 -110 -94 -176 l-7
-52 337 0 336 0 0 36 c0 92 -60 183 -148 225 -66 33 -261 39 -339 11z m302
-72 c22 -10 47 -25 56 -32 17 -14 59 -78 59 -90 0 -5 -117 -8 -260 -8 -143 0
-260 2 -260 5 0 19 44 87 67 103 47 33 84 40 193 41 84 0 113 -3 145 -19z"/>
<path d="M1050 1715 c0 -35 0 -35 45 -35 45 0 45 0 45 35 0 35 0 35 -45 35
-45 0 -45 0 -45 -35z"/>
<path d="M1230 1715 c0 -35 0 -35 45 -35 45 0 45 0 45 35 0 35 0 35 -45 35
-45 0 -45 0 -45 -35z"/>
<path d="M1420 1715 c0 -35 0 -35 45 -35 45 0 45 0 45 35 0 35 0 35 -45 35
-45 0 -45 0 -45 -35z"/>
<path d="M6014 1781 c-33 -14 -54 -51 -54 -92 0 -29 7 -43 31 -63 66 -56 159
-10 159 79 0 55 -80 100 -136 76z"/>
<path d="M5096 1253 c-49 -285 -91 -526 -94 -535 -4 -16 5 -18 86 -18 l90 0
12 73 c7 39 24 140 39 222 l26 150 205 3 c140 2 206 6 211 14 4 6 10 32 14 57
3 25 8 54 11 64 5 16 -9 17 -205 17 l-210 0 5 28 c2 15 15 86 27 157 l23 130
239 5 239 5 7 35 c4 19 10 52 13 73 l7 37 -328 0 -328 0 -89 -517z"/>
<path d="M6377 1666 c-3 -8 -11 -51 -18 -95 l-12 -81 -63 0 c-70 0 -68 2 -80
-82 l-6 -48 61 0 c33 0 61 -2 61 -4 0 -3 -16 -102 -35 -220 -38 -236 -42 -300
-21 -349 31 -72 108 -106 206 -91 l55 9 5 68 5 67 -38 0 c-60 0 -77 14 -77 63
0 23 16 132 35 242 19 110 35 203 35 208 0 4 31 7 69 7 l69 0 6 38 c4 20 9 49
12 65 l6 27 -66 0 c-79 0 -77 -9 -40 168 4 21 2 22 -80 22 -63 0 -85 -4 -89
-14z"/>
<path d="M3403 1492 c-28 -10 -68 -31 -89 -47 l-37 -28 7 36 7 37 -80 0 c-75
0 -81 -1 -86 -22 -2 -13 -32 -180 -65 -373 -33 -192 -62 -360 -65 -372 -5 -23
-4 -23 83 -23 l88 0 48 283 c34 195 55 290 68 309 38 54 142 84 202 57 26 -12
56 -63 56 -96 0 -10 -20 -138 -45 -283 -25 -146 -45 -266 -45 -268 0 -1 39 -1
87 0 l87 3 48 274 c43 250 50 278 75 309 42 52 89 74 146 69 56 -5 92 -33 101
-79 3 -17 -13 -143 -39 -298 -25 -148 -45 -271 -45 -274 0 -3 38 -6 85 -6 80
0 85 1 90 23 17 73 85 512 85 547 0 74 -20 130 -64 175 -90 94 -249 85 -366
-21 l-39 -35 -16 30 c-40 79 -172 112 -282 73z"/>
<path d="M7070 1501 c-38 -12 -85 -38 -99 -55 -21 -25 -34 -19 -29 14 l5 30
-79 0 c-72 0 -78 -2 -83 -22 -5 -25 -185 -1057 -185 -1064 0 -3 39 -3 86 -2
l87 3 34 175 c19 96 36 177 38 179 2 1 21 -11 42 -27 98 -77 250 -67 351 23
98 88 154 238 156 415 1 129 -19 200 -75 264 -57 65 -163 93 -249 67z m88
-161 c60 -37 81 -129 58 -257 -26 -149 -98 -241 -193 -250 -62 -6 -116 16
-141 56 -18 30 -18 33 11 203 26 150 33 177 56 202 57 62 149 82 209 46z"/>
<path d="M7881 1496 c-18 -6 -51 -27 -73 -45 l-39 -33 6 36 7 36 -81 0 c-75 0
-81 -1 -86 -22 -2 -13 -32 -180 -65 -373 -33 -192 -62 -360 -65 -372 -5 -23
-4 -23 83 -23 l88 0 33 193 c63 369 60 355 97 391 40 39 104 60 168 55 l46 -4
5 45 c3 25 8 61 11 81 5 32 2 37 -18 43 -34 9 -79 6 -117 -8z"/>
<path d="M8324 1501 c-195 -50 -330 -269 -311 -504 11 -124 72 -222 172 -275
44 -23 62 -26 145 -27 85 0 101 3 155 29 157 77 254 262 242 462 -8 140 -79
255 -184 299 -43 19 -173 28 -219 16z m156 -164 c58 -38 75 -80 74 -177 -1
-151 -51 -257 -140 -300 -83 -41 -169 -16 -209 60 -50 97 -12 299 71 384 59
59 145 73 204 33z"/>
<path d="M9130 1501 c-126 -39 -221 -156 -265 -326 -22 -86 -20 -218 6 -300
57 -186 247 -241 416 -119 l23 16 -16 -53 c-23 -78 -58 -124 -117 -154 -87
-43 -198 -26 -268 41 l-26 25 -42 -48 c-22 -26 -41 -53 -41 -60 0 -18 79 -79
135 -104 41 -19 69 -23 150 -23 92 -1 105 1 167 31 110 52 180 139 206 258 7
28 39 210 72 405 33 195 62 365 65 378 5 21 3 22 -74 22 l-80 0 -12 -35 c-7
-19 -16 -35 -19 -35 -4 0 -19 14 -35 30 -47 49 -168 74 -245 51z m184 -155
c18 -7 42 -27 53 -42 l21 -29 -32 -172 c-28 -155 -34 -175 -60 -202 -64 -67
-171 -79 -227 -25 -48 46 -62 142 -38 256 37 175 158 266 283 214z"/>
<path d="M10041 1496 c-18 -6 -51 -27 -73 -45 l-39 -33 6 36 7 36 -81 0 c-75
0 -81 -1 -86 -22 -2 -13 -32 -180 -65 -373 -33 -192 -62 -360 -65 -372 -5 -23
-4 -23 83 -23 l88 0 33 193 c63 369 60 355 97 391 40 39 104 60 168 55 l46 -4
5 45 c3 25 8 61 11 81 5 32 2 37 -18 43 -34 9 -79 6 -117 -8z"/>
<path d="M10460 1495 c-100 -29 -174 -85 -204 -157 -28 -66 -26 -68 69 -68
l84 0 16 33 c30 65 129 96 195 62 36 -19 54 -69 45 -128 l-7 -44 -121 -6
c-155 -6 -227 -30 -300 -96 -42 -38 -68 -96 -74 -162 -5 -49 -2 -67 20 -112
65 -133 229 -167 370 -77 26 16 50 30 52 30 3 0 5 -16 5 -35 l0 -35 84 0 84 0
0 78 c0 42 14 162 31 265 17 104 31 208 31 231 0 136 -95 224 -248 232 -50 3
-96 -1 -132 -11z m176 -447 c-3 -18 -8 -52 -12 -76 -14 -94 -156 -162 -243
-117 -34 17 -41 33 -41 87 0 35 6 47 39 78 46 44 89 58 190 59 l73 1 -6 -32z"/>
<path d="M11343 1492 c-28 -10 -68 -31 -89 -47 l-37 -28 7 36 7 37 -80 0 c-75
0 -81 -1 -86 -22 -2 -13 -32 -180 -65 -373 -33 -192 -62 -360 -65 -372 -5 -23
-4 -23 83 -23 l88 0 48 283 c34 195 55 290 68 309 38 54 142 84 202 57 26 -12
56 -63 56 -96 0 -10 -20 -138 -45 -283 -25 -146 -45 -266 -45 -268 0 -1 39 -1
87 0 l87 3 48 274 c43 250 50 278 75 309 42 52 89 74 146 69 56 -5 92 -33 101
-79 3 -17 -13 -143 -39 -298 -25 -148 -45 -271 -45 -274 0 -3 38 -6 85 -6 80
0 85 1 90 23 17 73 85 512 85 547 0 74 -20 130 -64 175 -90 94 -249 85 -366
-21 l-39 -35 -16 30 c-40 79 -172 112 -282 73z"/>
<path d="M4326 1473 c12 -53 124 -724 124 -745 0 -28 -41 -109 -74 -147 -28
-31 -76 -51 -124 -51 -36 0 -40 -3 -46 -31 -3 -17 -6 -48 -6 -69 0 -34 3 -38
31 -44 105 -21 202 19 270 112 22 30 509 976 509 989 0 2 -43 2 -95 1 l-96 -3
-122 -263 c-67 -144 -124 -254 -126 -245 -2 10 -18 128 -35 263 l-32 245 -91
3 c-83 2 -91 1 -87 -15z"/>
<path d="M5930 1483 c0 -4 -29 -174 -65 -379 -36 -205 -65 -380 -65 -388 0
-13 14 -16 83 -16 l82 0 63 368 c35 202 66 379 69 395 l6 27 -87 0 c-47 0 -86
-3 -86 -7z"/>
</g>
</svg>
