<?xml version="1.0" standalone="no"?>
<!DOCTYPE svg PUBLIC "-//W3C//DTD SVG 20010904//EN"
 "http://www.w3.org/TR/2001/REC-SVG-20010904/DTD/svg10.dtd">
<svg version="1.0" xmlns="http://www.w3.org/2000/svg"
 width="1248.000000pt" height="297.000000pt" viewBox="0 0 1248.000000 297.000000"
 preserveAspectRatio="xMidYMid meet">

<g transform="translate(0.000000,297.000000) scale(0.100000,-0.100000)"
fill="#000000" stroke="none">
<path d="M1093 2515 c-76 -21 -129 -51 -184 -102 -97 -90 -124 -167 -138 -390
l-10 -152 -98 -98 c-142 -142 -223 -296 -253 -486 -17 -104 -8 -280 20 -376
59 -207 209 -404 388 -510 l68 -41 395 0 394 0 80 51 c45 29 116 88 161 135
l82 84 4 -98 c4 -104 14 -129 59 -156 78 -46 179 12 179 102 0 27 4 30 40 36
42 7 120 66 120 92 0 10 15 14 55 14 30 0 65 5 79 11 28 13 56 64 56 103 0 19
7 29 24 36 34 13 66 58 66 94 0 41 -33 94 -65 102 -18 4 -25 13 -25 30 0 42
-27 92 -59 108 -16 9 -52 16 -80 16 -40 0 -51 4 -56 20 -10 30 -62 69 -111 81
-41 11 -44 14 -44 44 0 40 -38 90 -84 109 -25 10 -35 23 -45 57 -39 128 -161
309 -264 389 l-54 42 -10 172 c-9 134 -16 183 -33 226 -43 110 -132 197 -250
245 -62 25 -330 32 -407 10z m407 -84 c74 -38 110 -70 151 -133 44 -68 55
-117 64 -275 l7 -112 -82 35 c-89 37 -112 41 -129 20 -21 -25 -1 -44 79 -76
134 -54 235 -129 321 -236 52 -65 119 -185 139 -247 11 -35 10 -41 -8 -60 -35
-38 -42 -74 -42 -223 l0 -144 -290 0 -290 0 0 163 c0 178 -4 193 -60 222 -41
21 -93 19 -124 -6 -32 -25 -56 -69 -56 -104 0 -17 -5 -25 -17 -25 -39 -1 -104
-40 -124 -75 -19 -32 -25 -35 -66 -35 -87 0 -133 -40 -133 -115 0 -24 -5 -35
-15 -35 -8 0 -29 -13 -46 -28 -26 -23 -32 -36 -32 -68 0 -49 25 -89 62 -102
24 -9 29 -17 33 -57 8 -68 32 -88 113 -93 60 -4 67 -7 80 -32 19 -37 62 -67
108 -75 20 -4 37 -13 37 -20 0 -7 3 -25 6 -41 l6 -29 -148 2 -148 3 -55 36
c-182 121 -300 286 -352 493 -18 71 -21 105 -17 220 4 115 9 148 32 216 81
237 273 435 489 504 46 15 64 43 41 65 -21 21 -20 21 -115 -19 l-82 -34 7 130
c10 191 51 283 160 357 80 53 122 62 296 59 141 -2 159 -4 200 -26z m484
-1683 c-64 -110 -177 -226 -277 -286 -53 -32 -58 -33 -171 -34 -64 -1 -116 2
-116 6 0 3 0 78 0 166 l0 160 286 0 c225 0 284 -3 278 -12z"/>
<path d="M1123 2352 c-28 -10 -66 -30 -85 -44 -44 -34 -85 -110 -94 -176 l-7
-52 337 0 336 0 0 36 c0 92 -60 183 -148 225 -66 33 -261 39 -339 11z m302
-72 c22 -10 47 -25 56 -32 17 -14 59 -78 59 -90 0 -5 -117 -8 -260 -8 -143 0
-260 2 -260 5 0 19 44 87 67 103 47 33 84 40 193 41 84 0 113 -3 145 -19z"/>
<path d="M1050 1715 c0 -35 0 -35 45 -35 45 0 45 0 45 35 0 35 0 35 -45 35
-45 0 -45 0 -45 -35z"/>
<path d="M1230 1715 c0 -35 0 -35 45 -35 45 0 45 0 45 35 0 35 0 35 -45 35
-45 0 -45 0 -45 -35z"/>
<path d="M1420 1715 c0 -35 0 -35 45 -35 45 0 45 0 45 35 0 35 0 35 -45 35
-45 0 -45 0 -45 -35z"/>
<path d="M6014 1781 c-53 -23 -70 -98 -34 -144 59 -75 183 -17 166 78 -4 18
-15 40 -25 49 -22 20 -78 29 -107 17z"/>
<path d="M5096 1247 c-49 -287 -91 -528 -94 -534 -3 -10 18 -13 85 -13 l90 0
21 123 c12 67 29 168 39 225 l18 102 207 0 c236 0 208 -12 226 98 l9 52 -209
0 c-195 0 -209 1 -204 18 3 9 15 81 27 159 l23 143 240 2 240 3 12 65 c7 36
13 68 13 73 1 4 -146 7 -326 7 l-328 0 -89 -523z"/>
<path d="M6376 1663 c-2 -10 -10 -53 -17 -95 l-12 -78 -63 0 c-70 0 -68 2 -80
-82 l-6 -48 61 0 c37 0 61 -4 61 -11 0 -6 -16 -106 -36 -222 -41 -242 -42
-314 -5 -365 34 -49 75 -66 153 -66 87 0 98 10 98 85 l0 59 -43 0 c-53 0 -67
13 -67 63 0 32 46 332 66 430 5 26 7 27 74 27 l67 0 7 43 c4 23 9 52 13 65 5
21 3 22 -61 22 -57 0 -66 2 -66 18 0 20 18 127 26 155 5 15 -3 17 -80 17 -72
0 -85 -3 -90 -17z"/>
<path d="M3417 1496 c-27 -7 -69 -28 -94 -45 l-46 -33 6 36 6 36 -79 0 c-78 0
-78 0 -84 -27 -3 -16 -33 -185 -66 -378 -33 -192 -62 -358 -64 -368 -4 -16 3
-17 82 -15 l87 3 50 287 c55 312 55 312 129 348 85 41 167 19 187 -50 11 -35
7 -72 -30 -298 -23 -141 -45 -265 -47 -274 -5 -16 3 -18 80 -18 72 0 85 3 90
18 3 9 23 125 46 257 51 302 45 278 82 321 78 89 212 86 239 -5 10 -33 5 -73
-30 -287 -23 -137 -44 -261 -47 -276 l-6 -28 85 0 c85 0 85 0 91 28 3 15 24
137 47 272 44 266 46 328 10 399 -68 133 -266 147 -398 27 l-40 -36 -24 37
c-13 20 -41 45 -61 56 -49 24 -140 31 -201 13z"/>
<path d="M7061 1495 c-24 -7 -61 -27 -82 -44 -21 -17 -40 -31 -42 -31 -3 0 -1
16 3 35 l8 35 -78 0 c-77 0 -78 0 -84 -27 -3 -16 -44 -248 -91 -518 -47 -269
-88 -502 -91 -518 l-6 -27 86 0 c81 0 86 1 91 23 3 12 19 91 35 176 16 84 32
156 35 159 3 3 15 -4 28 -15 47 -43 89 -57 172 -57 70 -1 87 3 133 29 136 74
216 247 215 465 0 85 -4 116 -23 165 -51 134 -172 193 -309 150z m110 -161
c41 -37 53 -74 53 -164 0 -155 -63 -290 -151 -326 -71 -30 -160 -8 -197 48
-14 21 -12 38 14 188 16 91 30 170 30 177 0 17 60 74 95 90 42 19 129 12 156
-13z"/>
<path d="M7862 1484 c-29 -14 -62 -38 -73 -52 l-22 -27 7 43 6 42 -79 0 c-79
0 -79 0 -85 -27 -3 -16 -33 -185 -66 -378 -33 -192 -62 -358 -64 -368 -4 -16
3 -17 82 -15 l87 3 47 270 c52 295 55 303 129 343 35 19 56 23 106 20 l62 -3
6 55 c4 30 8 67 11 81 4 21 0 28 -18 33 -44 11 -85 6 -136 -20z"/>
<path d="M8327 1500 c-152 -38 -264 -167 -302 -345 -18 -84 -19 -137 -4 -207
41 -193 205 -293 399 -244 161 41 274 181 302 374 28 189 -40 343 -177 403
-56 25 -159 34 -218 19z m179 -183 c43 -47 58 -104 50 -194 -10 -130 -61 -224
-139 -262 -161 -78 -270 58 -223 278 31 146 114 226 225 218 47 -3 59 -9 87
-40z"/>
<path d="M9123 1496 c-173 -57 -284 -260 -270 -500 10 -183 87 -286 226 -303
59 -7 148 18 189 52 17 14 32 25 35 25 12 0 -23 -105 -47 -140 -68 -102 -235
-119 -335 -33 l-39 33 -42 -50 c-24 -29 -40 -56 -37 -65 9 -22 97 -83 147
-100 103 -36 225 -28 321 21 62 31 143 121 167 187 11 28 49 228 86 442 36
215 68 398 70 408 4 15 -5 17 -75 17 l-78 0 -12 -40 -12 -41 -31 30 c-17 16
-47 37 -66 46 -45 23 -144 29 -197 11z m196 -154 c19 -9 43 -28 53 -42 17 -24
17 -29 -13 -195 -27 -146 -35 -174 -58 -198 -58 -63 -152 -85 -212 -50 -16 10
-39 37 -51 61 -18 38 -20 56 -16 135 9 146 57 245 141 286 51 26 111 27 156 3z"/>
<path d="M10022 1484 c-29 -14 -62 -38 -73 -52 l-22 -27 7 43 6 42 -79 0 c-79
0 -79 0 -85 -27 -3 -16 -33 -185 -66 -378 -33 -192 -62 -358 -64 -368 -4 -16
3 -17 82 -15 l87 3 47 270 c52 295 55 303 129 343 35 19 56 23 106 20 l62 -3
6 55 c4 30 8 67 11 81 4 21 0 28 -18 33 -44 11 -85 6 -136 -20z"/>
<path d="M10462 1495 c-120 -34 -198 -103 -217 -192 l-7 -33 85 0 85 0 12 30
c37 89 194 108 235 29 16 -30 18 -59 9 -108 l-6 -31 -87 0 c-247 -1 -391 -91
-408 -256 -8 -74 16 -133 74 -183 84 -74 207 -79 316 -11 27 16 50 30 53 30 2
0 4 -16 4 -35 l0 -35 83 0 83 0 1 78 c0 42 14 167 32 276 38 228 37 274 -5
343 -57 92 -209 135 -342 98z m178 -428 c0 -50 -26 -135 -48 -160 -54 -58
-154 -84 -212 -54 -87 44 -42 177 71 212 60 19 189 20 189 2z"/>
<path d="M11357 1496 c-27 -7 -69 -28 -94 -45 l-46 -33 6 36 6 36 -79 0 c-78
0 -78 0 -84 -27 -3 -16 -33 -185 -66 -378 -33 -192 -62 -358 -64 -368 -4 -16
3 -17 82 -15 l87 3 50 287 c55 312 55 312 129 348 85 41 167 19 187 -50 11
-35 7 -72 -30 -298 -23 -141 -45 -265 -47 -274 -5 -16 3 -18 80 -18 72 0 85 3
90 18 3 9 23 125 46 257 51 302 45 278 82 321 78 89 212 86 239 -5 10 -33 5
-73 -30 -287 -23 -137 -44 -261 -47 -276 l-6 -28 85 0 c85 0 85 0 91 28 3 15
24 137 47 272 44 266 46 328 10 399 -68 133 -266 147 -398 27 l-40 -36 -24 37
c-13 20 -41 45 -61 56 -49 24 -140 31 -201 13z"/>
<path d="M4330 1473 c0 -10 29 -184 64 -388 l64 -370 -24 -46 c-49 -97 -104
-139 -182 -139 -38 0 -40 -2 -46 -38 -3 -20 -6 -51 -6 -69 0 -30 2 -31 50 -38
91 -13 163 16 231 93 32 37 109 178 287 531 l244 481 -95 0 -95 0 -123 -265
c-67 -145 -124 -263 -126 -261 -2 1 -17 110 -34 242 -16 131 -32 249 -35 262
-4 21 -9 22 -89 22 -74 0 -85 -2 -85 -17z"/>
<path d="M5930 1480 c0 -5 -29 -177 -65 -381 -36 -204 -65 -377 -65 -385 0
-12 16 -14 82 -12 l83 3 62 355 c34 195 65 372 68 393 l7 37 -86 0 c-49 0 -86
-4 -86 -10z"/>
</g>
</svg>
